<?xml version="1.0" encoding="UTF-8" standalone="no"?>
<svg width="16px" height="16px" viewBox="0 0 16 16" version="1.1" xmlns="http://www.w3.org/2000/svg" xmlns:xlink="http://www.w3.org/1999/xlink">
    <!-- Generator: Sketch 3.8.3 (29802) - http://www.bohemiancoding.com/sketch -->
    <title>预约到访</title>
    <desc>Created with Sketch.</desc>
    <defs></defs>
    <g id="Page-1" stroke="none" stroke-width="1" fill="none" fill-rule="evenodd">
        <g id="预约到访" fill="#666666">
            <path d="M7.0328125,14 L1.69375,14 C1.3109375,14 1,13.6890625 1,13.30625 L1,7 L14,7 L14,3.69375 C14,2.759375 13.240625,2 12.30625,2 L11,2 L11,1 L10,1 L10,2 L4,2 L4,1 L3,1 L3,2 L1.69375,2 C0.759375,2 0,2.759375 0,3.69375 L0,13.30625 C0,14.240625 0.759375,15 1.69375,15 L7.0328125,15 C7.309375,15 7.5328125,14.7765625 7.5328125,14.5 C7.5328125,14.2234375 7.309375,14 7.0328125,14 L7.0328125,14 Z M1,3.69375 C1,3.3109375 1.3109375,3 1.69375,3 L3,3 L3,4.5 L4,4.5 L4,3 L10,3 L10,4.5 L11,4.5 L11,3 L12.30625,3 C12.6890625,3 13,3.3109375 13,3.69375 L13,6 L1,6 L1,3.69375 L1,3.69375 Z M2.5,8.5 L6,8.5 L6,9.5 L2.5,9.5 L2.5,8.5 L2.5,8.5 Z M2.5,11.5 L6,11.5 L6,12.5 L2.5,12.5 L2.5,11.5 L2.5,11.5 Z M12.5,10 L11.5,10 L11.5,11.5 L11.5,12.5 L12.5,12.5 L14,12.5 L14,11.5 L12.5,11.5 L12.5,10 Z M14.828125,9.171875 C14.071875,8.415625 13.06875,8 12,8 C10.93125,8 9.9265625,8.415625 9.171875,9.171875 C8.415625,9.928125 8,10.93125 8,12 C8,13.06875 8.415625,14.0734375 9.171875,14.828125 C9.928125,15.584375 10.93125,16 12,16 C13.06875,16 14.0734375,15.584375 14.828125,14.828125 C15.584375,14.071875 16,13.06875 16,12 C16,10.93125 15.584375,9.9265625 14.828125,9.171875 L14.828125,9.171875 Z M12,15 C10.3453125,15 9,13.6546875 9,12 C9,10.3453125 10.3453125,9 12,9 C13.6546875,9 15,10.3453125 15,12 C15,13.6546875 13.6546875,15 12,15 L12,15 Z" id="Shape"></path>
        </g>
    </g>
</svg>