<?xml version="1.0" encoding="UTF-8" standalone="no"?>
<svg width="16px" height="16px" viewBox="0 0 16 16" version="1.1" xmlns="http://www.w3.org/2000/svg" xmlns:xlink="http://www.w3.org/1999/xlink">
    <!-- Generator: Sketch 3.8.3 (29802) - http://www.bohemiancoding.com/sketch -->
    <title>定位查询</title>
    <desc>Created with Sketch.</desc>
    <defs></defs>
    <g id="Page-1" stroke="none" stroke-width="1" fill="none" fill-rule="evenodd">
        <g id="定位查询" fill="#666666">
            <path d="M8.01132726,0 C4.75674091,0 2,2.79351176 2,6.10240697 C2,9.56753551 5.19479409,13.1110733 7.34381333,15.6015721 C7.35205178,15.6115744 7.69924612,16 8.1273551,16 L8.16515397,16 C8.59302705,16 8.93804383,15.6115744 8.94677223,15.6015721 C10.9635408,13.26535 13.9087498,9.41324047 13.9087498,6.10240697 C13.908768,2.79351176 11.7587144,0 8.01132726,0 L8.01132726,0 Z M8.21071949,14.9308879 C8.19300864,14.9484605 8.16809368,14.9682457 8.14553776,14.984136 C8.12303627,14.9682457 8.09783097,14.9484605 8.07988422,14.9308879 L7.81991943,14.6301059 C5.78253662,12.2748483 2.9924064,9.04946406 2.9924064,6.10240697 C2.9924064,3.33648838 5.29071576,0.999772571 8.01130911,0.999772571 C11.3996704,0.999772571 12.9163434,3.56231721 12.9163434,6.10240697 C12.9163434,8.33973982 11.3332911,11.3102392 8.21071949,14.9308879 L8.21071949,14.9308879 Z M7.97207668,3.02789832 C6.32794368,3.02789832 4.99489376,4.37116842 4.99489376,6.02794746 C4.99489376,7.68470821 6.32794368,9.0279966 7.97207668,9.0279966 C9.61619153,9.0279966 10.9492414,7.68468993 10.9492414,6.02794746 C10.9492596,4.37116842 9.61619153,3.02789832 7.97207668,3.02789832 L7.97207668,3.02789832 Z M7.97207668,8.02796803 C6.87766957,8.02796803 5.96449019,7.10900012 5.96449019,6.00596801 C5.96449019,4.90315532 6.85489589,4.00592915 7.94928485,4.00592915 C9.04390971,4.00592915 9.93406136,4.9031736 9.93406136,6.00596801 C9.93407951,7.10900012 9.06670154,8.02796803 7.97207668,8.02796803 L7.97207668,8.02796803 Z" id="Shape"></path>
        </g>
    </g>
</svg>