<?xml version="1.0" encoding="UTF-8" standalone="no"?>
<svg width="16px" height="16px" viewBox="0 0 16 16" version="1.1" xmlns="http://www.w3.org/2000/svg" xmlns:xlink="http://www.w3.org/1999/xlink">
    <!-- Generator: Sketch 3.8.3 (29802) - http://www.bohemiancoding.com/sketch -->
    <title>快递签收</title>
    <desc>Created with Sketch.</desc>
    <defs></defs>
    <g id="Page-1" stroke="none" stroke-width="1" fill="none" fill-rule="evenodd">
        <g id="快递签收" fill="#5F5F5F">
            <path d="M15.3898484,3.60543359 C15.3244655,3.46649505 15.1970198,3.36749699 15.0502162,3.33727273 L8.27951965,0.0499274039 C8.14222143,-0.0166414294 7.98037818,-0.0166414294 7.84309281,0.0499211729 L0.982508124,3.37515352 C0.816777521,3.45387216 0.708392365,3.619909 0.700097431,3.80654501 L0.699999988,12.1723881 C0.699999988,12.3646417 0.809276396,12.539019 0.983122884,12.621803 L7.84310447,15.9467457 C7.88765817,15.9673994 7.88765817,15.9673994 7.89161111,15.9679159 C7.90701313,15.9737737 7.90701313,15.9737737 7.93622816,15.9766505 C7.96771993,15.9908841 7.96771993,15.9908841 7.97895395,15.9923337 C8.02059953,15.9966983 8.02059953,15.9966983 8.03037698,15.9977253 C8.07435843,16.0000091 8.07435843,16.0000091 8.09012731,15.9994282 C8.15540379,15.9929151 8.15540379,15.9929151 8.18092915,15.984921 C8.22993858,15.9699008 8.22993858,15.9699008 8.23182231,15.9679159 C8.25438407,15.9617892 8.25438407,15.9617892 8.28787289,15.9433797 C8.30677258,15.9314664 15.1634414,12.6115004 15.1634414,12.6115004 C15.3351151,12.5277575 15.4459463,12.3527607 15.4459463,12.1623824 L15.4392759,3.99462891 C15.4392759,3.99462891 15.4225187,3.67485798 15.3898484,3.60543359 Z M8.01652426,1.03152946 L13.9665991,3.91651528 L13.9665505,3.73872489 L11.7752954,4.80266764 L5.91148497,1.91765825 L5.91153354,2.09544864 L8.10278867,1.03150589 L8.01652426,1.03152946 Z M8.10274011,6.62368716 L2.15266529,3.73870133 L2.15265639,3.9165196 L4.99428405,2.53906394 L10.8581519,5.42404545 L10.8581608,5.24622718 L8.01653316,6.62368284 L8.10274011,6.62368716 Z M1.55615718,4.56021733 L7.61629503,7.49856706 L7.56059634,7.40966007 L7.56059634,14.8572593 L7.70251084,14.7683523 L1.64237298,11.8300026 L1.69807167,11.9189096 L1.69807167,4.47131035 L1.55615718,4.56021733 Z M8.55866803,14.8572593 L8.55866803,7.40966007 L8.50300392,7.49855028 L11.3479668,6.11775937 L11.2060177,6.02886917 L11.2060177,7.97665151 C11.2060177,8.25134697 11.4303581,8.47568735 11.7050536,8.47568735 C11.979749,8.47568735 12.2040894,8.25134697 12.2040894,7.97665151 L12.2040894,5.63864565 L12.1483955,5.72755032 L14.5831234,4.54687404 L14.4412042,4.45796937 L14.4412042,11.9055686 L14.4968598,11.8166825 L8.41671047,14.7683732 L8.55866803,14.8572593 Z" id="Shape"></path>
        </g>
    </g>
</svg>