<?xml version="1.0" encoding="UTF-8" standalone="no"?>
<svg width="16px" height="16px" viewBox="0 0 16 16" version="1.1" xmlns="http://www.w3.org/2000/svg" xmlns:xlink="http://www.w3.org/1999/xlink">
    <!-- Generator: Sketch 3.8.3 (29802) - http://www.bohemiancoding.com/sketch -->
    <title>云办公</title>
    <desc>Created with Sketch.</desc>
    <defs></defs>
    <g id="Page-1" stroke="none" stroke-width="1" fill="none" fill-rule="evenodd">
        <g id="云办公" fill="#666666">
            <path d="M12.7858,15.055 L12.7208,15.055 L3.9308,15.055 L3.8938,15.055 C2.8378,15.036 1.9998,14.261 1.9998,13.33 C1.9998,12.46 2.7488,11.701 3.7288,11.601 L4.1948,11.553 L4.1778,11.085 C4.1748,11.017 4.1738,10.953 4.1738,10.904 C4.1738,10.137 4.4998,9.415 5.0998,8.866 C5.7078,8.308 6.5198,8 7.3878,8 C8.0548,8 8.7128,8.209 9.2928,8.606 C9.6858,8.875 10.0178,9.219 10.2558,9.601 L10.4918,9.98 L10.8948,9.788 C11.1278,9.677 11.3868,9.619 11.6568,9.619 C12.0698,9.619 12.4708,9.796 12.7888,10.126 C13.0028,10.347 13.1558,10.617 13.2298,10.895 L13.2968,11.148 L13.5428,11.237 C13.9258,11.376 14.2638,11.613 14.5058,11.91 C14.7848,12.253 14.9308,12.654 14.9308,13.078 C14.9308,14.141 13.9818,15.023 12.7858,15.055 L12.7858,15.055 Z M2.9928,0.995 L9.9578,0.995 L9.9578,7.865 C9.9218,7.84 9.8938,7.806 9.8578,7.781 C9.1138,7.271 8.2588,7 7.3878,7 C6.6948,7 6.0348,7.171 5.4358,7.463 L3.9878,7.463 L3.9878,8.615 C3.5128,9.219 3.2418,9.932 3.1968,10.688 C3.1278,10.705 3.0598,10.724 2.9928,10.746 L2.9928,0.995 Z M13.9378,3.98 L13.9378,10.01 C13.8208,9.802 13.6778,9.606 13.5088,9.431 C13.3188,9.235 13.1018,9.083 12.8748,8.955 L12.9428,8.955 L12.9428,7.463 L11.9478,7.463 L11.9478,8.649 C11.8508,8.638 11.7548,8.619 11.6568,8.619 C11.4158,8.619 11.1808,8.658 10.9528,8.717 L10.9528,3.98 L13.9378,3.98 Z M15.2808,11.278 C15.1718,11.145 15.0308,11.039 14.8998,10.925 L14.9328,10.915 L14.9328,2.985 L10.9528,2.985 L10.9528,0 L1.9978,0 L1.9978,11.294 C1.3908,11.798 0.9998,12.522 0.9998,13.33 C0.9998,14.845 2.3238,16.058 3.9308,16.058 L4.4308,16.058 L4.4308,16.055 L12.2208,16.055 L12.2208,16.061 L12.7208,16.061 C14.4818,16.061 15.9308,14.733 15.9308,13.078 C15.9308,12.422 15.7048,11.798 15.2808,11.278 Z M6.973,3.9809 L8.963,3.9809 L8.963,2.4879 L6.973,2.4879 L6.973,3.9809 Z M11.948,6.4679 L12.943,6.4679 L12.943,4.9749 L11.948,4.9749 L11.948,6.4679 Z M3.988,6.4679 L5.978,6.4679 L5.978,4.9749 L3.988,4.9749 L3.988,6.4679 Z M6.973,6.4679 L8.963,6.4679 L8.963,4.9749 L6.973,4.9749 L6.973,6.4679 Z M3.988,3.9809 L5.978,3.9809 L5.978,2.4879 L3.988,2.4879 L3.988,3.9809 Z" id="Combined-Shape"></path>
        </g>
    </g>
</svg>