<?xml version="1.0" encoding="UTF-8" standalone="no"?>
<svg width="16px" height="16px" viewBox="0 0 16 16" version="1.1" xmlns="http://www.w3.org/2000/svg" xmlns:xlink="http://www.w3.org/1999/xlink">
    <!-- Generator: Sketch 3.8.3 (29802) - http://www.bohemiancoding.com/sketch -->
    <title>会议预定</title>
    <desc>Created with Sketch.</desc>
    <defs></defs>
    <g id="Page-1" stroke="none" stroke-width="1" fill="none" fill-rule="evenodd">
        <g id="会议预定" fill="#666666">
            <path d="M15,1 L15,10.0044225 C15,10.5542648 14.5500512,11 13.9931545,11 L8.5,11 L8.5,12.5017042 C8.52103161,12.5169368 8.5411162,12.5340092 8.56002585,12.5529189 L11.1519569,15.1448499 C11.3468687,15.3397618 11.3408742,15.6617708 11.1513226,15.8513224 C10.9560604,16.0465845 10.6387109,16.0458175 10.4448501,15.8519567 L8.00195143,13.409058 L5.55992171,15.8510877 C5.36506741,16.045942 5.04310496,16.0399009 4.85355339,15.8503493 C4.65829124,15.6550871 4.65901133,15.3377846 4.85281493,15.143981 L7.44398115,12.5528147 C7.4616712,12.5351247 7.48040888,12.5190905 7.50000001,12.504699 C7.5,12.5046697 7.5,12.5046403 7.5,12.504611 L7.5,11 L2.00684547,11 C1.45078007,11 1,10.555163 1,10.0044225 L1,1 L0.496393204,1 C0.222242807,1 0,0.768066406 0,0.5 C0,0.223857625 0.22618103,0 0.496393204,0 L15.5036068,0 C15.7777572,0 16,0.231933594 16,0.5 C16,0.776142375 15.773819,1 15.5036068,1 L15,1 Z M2,1 L14,1 L14,9.49033415 C14,9.77181483 13.7709994,10 13.4996527,10 L2.50034732,10 C2.22401312,10 2,9.77752686 2,9.49033415 L2,1 Z" id="Combined-Shape"></path>
        </g>
    </g>
</svg>