<?xml version="1.0" encoding="UTF-8" standalone="no"?>
<svg width="16px" height="16px" viewBox="0 0 16 16" version="1.1" xmlns="http://www.w3.org/2000/svg" xmlns:xlink="http://www.w3.org/1999/xlink">
    <!-- Generator: Sketch 3.8.3 (29802) - http://www.bohemiancoding.com/sketch -->
    <title>停车付费</title>
    <desc>Created with Sketch.</desc>
    <defs></defs>
    <g id="Page-1" stroke="none" stroke-width="1" fill="none" fill-rule="evenodd">
        <g id="停车付费" fill="#666666">
            <path d="M0,0.496393204 C0,0.222242807 0.22618103,0 0.496393204,0 L15.5036068,0 C15.7777572,0 16,0.22618103 16,0.496393204 L16,15.5036068 C16,15.7777572 15.773819,16 15.5036068,16 L0.496393204,16 C0.222242807,16 0,15.773819 0,15.5036068 L0,0.496393204 Z M1,1.24299622 C1,1.10879311 1.12103081,1 1.24299622,1 L14.7570038,1 C14.8912069,1 15,1.12103081 15,1.24299622 L15,14.7570038 C15,14.8912069 14.8789692,15 14.7570038,15 L1.24299622,15 C1.10879311,15 1,14.8789692 1,14.7570038 L1,1.24299622 Z M5.5,3.5 L5.5,12.5 L6.5,12.5 L6.5,9.5 L9,9.5 C10.4188125,9.26192187 11.5,7.98646875 11.5,6.5 C11.5,5.01353125 10.4188125,3.7380625 9,3.5 L5.5,3.5 Z M6.5,8.5 L6.5,4.5 L8.5,4.5 C9.60454688,4.5 10.5,5.39545312 10.5,6.5 C10.5,7.60454688 9.60454688,8.5 8.5,8.5 L6.5,8.5 Z" id="Combined-Shape"></path>
        </g>
    </g>
</svg>