<?xml version="1.0" encoding="UTF-8" standalone="no"?>
<svg width="16px" height="16px" viewBox="0 0 16 16" version="1.1" xmlns="http://www.w3.org/2000/svg" xmlns:xlink="http://www.w3.org/1999/xlink">
    <!-- Generator: Sketch 3.8.3 (29802) - http://www.bohemiancoding.com/sketch -->
    <title>维修保洁</title>
    <desc>Created with Sketch.</desc>
    <defs></defs>
    <g id="Page-1" stroke="none" stroke-width="1" fill="none" fill-rule="evenodd">
        <g id="维修保洁" fill="#666666">
            <path d="M2.49674078,9.28886906 C2.72015404,9.27893919 2.93178007,9.1845182 3.09262542,9.02364942 L3.68531618,8.43093909 C3.84788119,8.26839689 3.94096415,8.05470323 3.95018364,7.83311969 L3.69259996,7.93354012 L3.8309063,8.07194427 L4.04440908,8.0719831 L4.99009901,7.12631273 L4.77663569,7.12631336 L6.28082275,8.61035156 L6.89816008,7.99100005 L4.99009823,6.0830055 L4.77663506,6.08300627 L3.83110159,7.02852018 L4.044604,7.02855865 L3.70941014,6.69313006 L3.49588957,6.69310976 L2.82288083,7.36633365 L2.8231111,7.57999555 L3.08335236,7.83920015 C3.05628608,7.81208205 3.05783685,7.80160923 3.0569485,7.80249726 L2.46419155,8.39527376 C2.46862253,8.40050924 2.48435643,8.40482217 2.5010162,8.42148194 L0.868044077,6.78835335 C0.884845842,6.80513944 0.889147788,6.8208965 0.88864779,6.83212472 C0.888604639,6.83309718 1.4871538,6.23263785 1.4871538,6.23263785 C1.48244116,6.22733103 1.46702575,6.22312822 1.4503184,6.20642087 L1.71043181,6.46629955 L1.92384512,6.46625604 L2.59636486,5.79379497 L2.59636018,5.58031481 L2.26112719,5.2451405 L2.2611337,5.45861883 L5.2148573,2.50505173 L5.00139396,2.5050489 L5.21304902,2.71670396 L5.40596005,2.7338953 L5.60740498,2.59380902 C6.14521154,2.21984362 6.64824907,1.98476097 7.0575222,1.91281649 C7.37035799,1.85779982 7.60210999,1.89921715 7.75678523,2.02720258 L7.74627652,1.80417817 L6.13012061,3.42041232 L6.13013117,3.63388387 L6.78467559,4.28833049 L6.78466472,4.07485925 L5.70328944,5.15629321 L5.7032961,5.36976024 L7.64483643,7.2477417 L8.23675598,6.64630087 L6.7465724,5.15624658 L6.74657992,5.36971447 L7.82797478,4.28826094 L7.82796231,4.0747881 L7.17341789,3.42036104 L7.17342939,3.63383483 L8.79187379,2.01533176 L8.79182663,1.80182232 L8.42232512,1.43263377 C8.07653251,1.0867827 7.57343259,0.919722698 6.90360821,1.03754263 C6.41456734,1.1235213 5.87944697,1.35462863 5.30851259,1.72416331 L5.49725882,1.74414329 L5.21481734,1.46172138 L5.00135653,1.46172342 L1.2177557,5.24520689 L1.21776919,5.45868985 L1.35568435,5.59656587 L1.46240228,5.48981765 L1.45584767,5.33901666 C1.23114135,5.34900154 1.01948149,5.44344995 0.858693631,5.60430807 L0.265929412,6.19699405 C0.10509816,6.35791897 0.0107327456,6.5695556 0.000836106384,6.79274816 C-0.00955292731,7.0270974 0.0772582845,7.25457379 0.239842175,7.4169414 L1.87258738,9.04982357 C2.02776549,9.20504951 2.23497486,9.28973699 2.45767255,9.28971315 C2.47717417,9.28957217 2.47717417,9.28957217 2.49674078,9.28886906 Z M12.4844705,14.5829727 L14.2044378,12.8630837 C14.3651216,12.7022814 14.4565,12.4921227 14.4529883,12.283805 C14.4500814,12.1107433 14.3812713,11.9511338 14.2588,11.8365639 L10.5900002,8.60839844 L9.96606447,9.23876953 L13.5974648,12.4377627 L13.6974969,12.3247252 L13.577594,12.2330345 C13.5772358,12.2334955 11.8560006,13.9547309 11.8560006,13.9547309 C11.8544041,13.9562167 11.9430738,14.078366 11.9430738,14.078366 L12.0531141,13.9750459 L8.75897218,10.4390258 L8.11999989,11.0699997 L11.4582506,14.6398121 C11.5736043,14.7617642 11.733268,14.8297479 11.9061073,14.8321431 C12.1207681,14.8322163 12.3267018,14.7408834 12.4844705,14.5829727 Z M3.78174748,14.7905933 C4.18987875,14.7905933 4.57434505,14.6314131 4.86297738,14.3429109 L10.1500351,9.05593145 L11.3038956,7.90214914 L11.1258689,7.92845601 C11.516602,8.13784777 11.9522204,8.24690952 12.399205,8.24690952 C13.1196646,8.24690952 13.7978476,7.96598959 14.3074522,7.45646781 L15.2109008,6.55303877 C16.1169726,5.64690484 16.2598678,4.21639483 15.5506916,3.15059962 L15.3522392,2.85235372 L15.2501428,2.69891738 L15.1198325,2.82924622 L13.0593594,4.89001273 L13.2728341,4.89000607 L12.1535522,3.7707046 L12.1535477,3.98417338 L14.2141773,1.92368069 L14.3444922,1.79337452 L14.1910696,1.69128063 L13.8928435,1.49282833 C13.4498392,1.19805158 12.9330232,1.04218449 12.3988334,1.04218449 C11.6782196,1.04218449 10.9999747,1.32310303 10.4904058,1.83263054 L9.58713178,2.73598277 C8.7468555,3.57621786 8.55742628,4.87565181 9.11512583,5.91750811 L9.14146415,5.73954521 L7.98763988,6.89348683 L2.70065078,12.1803977 C2.10437382,12.7766096 2.10438726,13.7465134 2.70067747,14.3429339 C2.989296,14.6314223 3.37370741,14.7905933 3.78174748,14.7905933 Z M12.3988138,1.93086099 C12.6423517,1.93086099 12.8808576,1.97896529 13.1024796,2.07242558 L13.0544021,1.82660727 L11.1102307,3.7706613 L11.1102269,3.98413015 L13.0594056,5.93332838 L13.2728793,5.93332193 L15.2167964,3.98915054 L14.9709281,3.94096706 C15.254365,4.61456316 15.1033384,5.40377544 14.5825131,5.92463649 L13.6790952,6.82805435 C13.3369143,7.170145 12.8828468,7.358233 12.3991854,7.358233 C12.0403268,7.358233 11.6941425,7.25391043 11.397517,7.05646688 L11.1974433,6.92328657 L11.007074,6.9422003 L9.52163532,8.42752166 L4.23467531,13.7144426 C4.11353571,13.8355346 3.95317783,13.9019168 3.78174748,13.9019168 C3.61042758,13.9019168 3.45010512,13.8355435 3.32901424,13.7145002 C3.07944107,13.4648479 3.07943127,13.0583327 3.32901227,12.8087675 L10.101411,6.03631007 L10.1203115,5.8459115 L9.98707113,5.64583575 C9.51169684,4.93197129 9.60774173,3.97208909 10.2155169,3.36436812 L11.1187913,2.46101547 C11.4608765,2.11894832 11.9149962,1.93086099 12.3988138,1.93086099 Z" id="Shape"></path>
        </g>
    </g>
</svg>