<?xml version="1.0" encoding="UTF-8" standalone="no"?>
<svg width="16px" height="16px" viewBox="0 0 16 16" version="1.1" xmlns="http://www.w3.org/2000/svg" xmlns:xlink="http://www.w3.org/1999/xlink">
    <!-- Generator: Sketch 3.8.3 (29802) - http://www.bohemiancoding.com/sketch -->
    <title>发布活动</title>
    <desc>Created with Sketch.</desc>
    <defs></defs>
    <g id="Page-1" stroke="none" stroke-width="1" fill="none" fill-rule="evenodd">
        <g id="发布活动" fill="#666666">
            <path d="M8.27811502,5.07843837 C8.10698348,4.97385388 7.89306906,4.97385388 7.72193752,5.07843837 L3.26247878,7.80320158 C3.09959898,7.90270136 3,8.08189731 3,8.2752234 L3,15.4495666 C3,15.7535788 3.2420334,16 3.54056753,16 L12.4594325,16 C12.7579666,16 13,15.7535788 13,15.4495666 L13,8.2752234 C13.0000525,8.08189731 12.9004536,7.90270136 12.7375738,7.80320158 L8.27811502,5.07843837 Z M9.00464327,16 L7.00464327,16 L7.00464327,12.5 L9.00464327,12.5 L9.00464327,16 Z M10.0046433,15 L10.0046433,12.072113 C10.0046433,11.8288664 9.75668509,11.50499 9.45464308,11.5049902 L6.55464346,11.5049902 C6.31967623,11.50499 6.00464327,11.7589134 6.00464327,12.072113 L6.00464327,15 L4.00464327,15 L4.00464327,8.46683282 L8.00464327,6 L12.0046433,8.46683282 L12.0046433,15 L10.0046433,15 Z M6.16190486,2.55690236 C6.36302994,2.55690236 6.55874723,2.47356986 6.70046078,2.32870301 C6.84298919,2.18398753 6.92380962,1.98318724 6.92380962,1.77845118 C6.92380962,1.5737908 6.84298919,1.37299051 6.70046078,1.22804797 C6.55882131,1.08325681 6.36302994,1 6.16190486,1 C5.96152057,1 5.7649884,1.08325681 5.62327486,1.22804797 C5.48148724,1.37291482 5.4000001,1.57371511 5.4000001,1.77845118 C5.4000001,1.98318724 5.48148724,2.18398753 5.62327486,2.32870301 C5.7649884,2.47349417 5.96152057,2.55690236 6.16190486,2.55690236 Z M2.36190479,7.25690217 C2.56221499,7.25690217 2.75882124,7.17356562 2.9004607,7.02876741 C3.04298912,6.8840449 3.12380955,6.68323485 3.12380955,6.47841314 C3.12380955,6.27366712 3.04298912,6.07285707 2.9004607,5.92805887 C2.75882124,5.78326067 2.56302986,5.69999981 2.36190479,5.69999981 C2.1615205,5.69999981 1.96498833,5.78326067 1.82327479,5.92805887 C1.68148716,6.07285707 1.60000002,6.27366712 1.60000002,6.47841314 C1.60000002,6.68315916 1.68148716,6.88396921 1.82327479,7.02876741 C1.96565505,7.17356562 2.1615205,7.25690217 2.36190479,7.25690217 Z M15.4273877,5.06405632 C15.2857482,4.91918947 15.0892161,4.83593266 14.8887577,4.83593266 C14.6884475,4.83593266 14.4919153,4.91918947 14.3501277,5.06405632 C14.2084141,5.20884748 14.126927,5.40964777 14.126927,5.61438384 C14.126927,5.81904422 14.2084141,6.01984451 14.3501277,6.16471136 C14.4926561,6.30950252 14.6884475,6.39283502 14.8887577,6.39283502 C15.089142,6.39283502 15.2856741,6.30950252 15.4273877,6.16471136 C15.5699161,6.01992019 15.6507365,5.8191199 15.6507365,5.61438384 C15.6506625,5.40964777 15.5699161,5.20884748 15.4273877,5.06405632 Z M13.637992,1.49309848 C13.4963388,1.34830732 13.2997134,1.26505051 13.0993838,1.26505051 C12.89898,1.26505051 12.7024287,1.34830732 12.5607014,1.49309848 C12.4189741,1.63796533 12.337479,1.83876562 12.337479,2.04350168 C12.337479,2.24823775 12.4189741,2.44903804 12.5607014,2.59375351 C12.7024287,2.73854468 12.89898,2.82195286 13.0993838,2.82195286 C13.2997134,2.82195286 13.4963388,2.73862036 13.637992,2.59375351 C13.7804602,2.44903804 13.8612885,2.24823775 13.8612885,2.04350168 C13.8612885,1.83884131 13.7804602,1.63796533 13.637992,1.49309848 Z M9.616029,4.55245791 C9.68473225,4.55245791 9.7544373,4.5357037 9.81934421,4.50041751 C9.85804581,4.47935354 10.7727006,3.96891582 11.1904037,2.57298316 C11.2604778,2.33890909 11.1315604,2.09115152 10.902409,2.01955556 C10.6735212,1.9479596 10.4307662,2.07967677 10.3607448,2.31385859 C10.0552974,3.33446465 9.44139726,3.70068687 9.40833745,3.71975758 C9.19948591,3.83579798 9.12076454,4.1023569 9.23259845,4.3173064 C9.31058164,4.46707071 9.46074806,4.55245791 9.616029,4.55245791 Z M3.22826166,2.17155556 C4.37059153,2.95415488 4.39326413,4.54704377 4.39336958,4.56304377 C4.39405503,4.80713805 4.58803757,5.00490236 4.82720712,5.00490236 C5.06679848,5.00490236 5.26104465,4.80643771 5.26104465,4.5616431 C5.26104465,4.47738721 5.24338112,2.48476768 3.71150437,1.4352862 C3.51267095,1.29904377 3.24297248,1.35318519 3.10957324,1.55655219 C2.97606855,1.75981145 3.02921733,2.03515152 3.22826166,2.17155556 Z M12.9872731,3.86268271 C12.0438294,4.43771302 11.4779108,5.46979383 11.4542364,5.51348406 C11.3383425,5.72773322 11.4142694,5.99741672 11.6239645,6.11593524 C11.690506,6.15353793 11.762531,6.17136958 11.8335542,6.17136958 C11.9862516,6.17136958 12.1344144,6.08878372 12.2135575,5.94257497 C12.2182502,5.93400931 12.6874676,5.07765915 13.4318143,4.62400258 C13.6375022,4.49858844 13.7048345,4.22653457 13.5820861,4.01627194 C13.4593905,3.80611706 13.1930665,3.73716083 12.9872731,3.86268271 Z M1.19907482,8.39725253 L0.744880538,8.69069523 L0.257294252,8.46382361 L0.382545775,9.00871294 L0.0265743945,9.42609049 L0.558200325,9.46921265 L0.825777397,9.95415488 L1.02909061,9.43589399 L1.55038392,9.31825195 L1.14445054,8.95472743 L1.19907482,8.39725253 Z M8.04300507,2.53919656 L8.31058214,3.02402694 L8.51389535,2.50581023 L9.03518866,2.38816319 L8.62919228,2.02468945 L8.68387956,1.46712458 L8.22968528,1.76064602 L7.742099,1.5336985 L7.86735052,2.07867726 L7.51137914,2.49600631 L8.04300507,2.53919656 Z M14.5666134,8.69468013 L14.1124004,8.98825532 L13.6248569,8.76131746 L13.7500506,9.30627303 L13.3941275,9.72351809 L13.9257124,9.76677274 L14.1933006,10.2515825 L14.3966852,9.73338784 L14.9179371,9.61567955 L14.5120499,9.25222128 L14.5666134,8.69468013 Z M0.673534355,2.38494276 C0.460991926,2.27186532 0.198991597,2.35628283 0.088264953,2.57333333 C0.0531487889,2.64223569 0.0374888779,2.71625589 0.039228868,2.78876768 C0.0430779371,2.94472727 0.127599275,3.09406061 0.272703905,3.17120539 C0.281192948,3.17578451 1.13094085,3.6336431 1.59356731,4.38257239 C1.72143022,4.58954882 1.9893887,4.65150168 2.19207118,4.52080808 C2.39459549,4.39022222 2.45538969,4.11655219 2.32736859,3.90941414 C1.74104465,2.96018855 0.7168232,2.408 0.673534355,2.38494276 Z" id="Combined-Shape"></path>
        </g>
    </g>
</svg>