<?xml version="1.0" encoding="UTF-8" standalone="no"?>
<svg width="16px" height="16px" viewBox="0 0 16 16" version="1.1" xmlns="http://www.w3.org/2000/svg" xmlns:xlink="http://www.w3.org/1999/xlink">
    <!-- Generator: Sketch 3.8.3 (29802) - http://www.bohemiancoding.com/sketch -->
    <title>门禁出入</title>
    <desc>Created with Sketch.</desc>
    <defs></defs>
    <g id="Page-1" stroke="none" stroke-width="1" fill="none" fill-rule="evenodd">
        <g id="门禁出入" fill="#666666">
            <path d="M8.5,12.0000194 L8.5,10.9999782 C8.5015598,10.9999927 8.5031213,11 8.50468445,11 L9.49531555,11 C9.78596497,11 10,10.7761424 10,10.5 C10,10.2319336 9.77404508,10 9.49531555,10 L8.50468445,10 C8.50312074,10 8.50155925,10.0000065 8.5,10.0000194 L8.5,7.95852078 C9.91885667,7.72048173 11,6.48649814 11,5 C11,3.34314575 9.65685425,2 8,2 C6.34314575,2 5,3.34314575 5,5 C5,6.48649814 6.08114333,7.72048173 7.5,7.95852078 L7.5,13.4965773 C7.5,13.7670975 7.72385763,14 8,14 C8.26806641,14 8.5,13.77461 8.5,13.4965773 L8.5,12.9999782 C8.5015598,12.9999927 8.5031213,13 8.50468445,13 L9.49531555,13 C9.78596497,13 10,12.7761424 10,12.5 C10,12.2319336 9.77404508,12 9.49531555,12 L8.50468445,12 C8.50312074,12 8.50155925,12.0000065 8.5,12.0000194 Z M2,0.496393204 C2,0.222242807 2.22900057,0 2.50034732,0 L13.4996527,0 C13.7759869,0 14,0.22618103 14,0.496393204 L14,15.5036068 C14,15.7777572 13.7709994,16 13.4996527,16 L2.50034732,16 C2.22401312,16 2,15.773819 2,15.5036068 L2,0.496393204 Z M3,1.24299622 C3,1.10879311 3.11230469,1 3.24719238,1 L12.7528076,1 C12.8893282,1 13,1.12103081 13,1.24299622 L13,14.7570038 C13,14.8912069 12.8876953,15 12.7528076,15 L3.24719238,15 C3.1106718,15 3,14.8789692 3,14.7570038 L3,1.24299622 Z M8,7 C9.1045695,7 10,6.1045695 10,5 C10,3.8954305 9.1045695,3 8,3 C6.8954305,3 6,3.8954305 6,5 C6,6.1045695 6.8954305,7 8,7 Z" id="Combined-Shape"></path>
        </g>
    </g>
</svg>