<?xml version="1.0" encoding="UTF-8" standalone="no"?>
<svg width="16px" height="16px" viewBox="0 0 16 16" version="1.1" xmlns="http://www.w3.org/2000/svg" xmlns:xlink="http://www.w3.org/1999/xlink">
    <!-- Generator: Sketch 3.8.3 (29802) - http://www.bohemiancoding.com/sketch -->
    <title>帐单缴费</title>
    <desc>Created with Sketch.</desc>
    <defs></defs>
    <g id="Page-1" stroke="none" stroke-width="1" fill="none" fill-rule="evenodd">
        <g id="帐单缴费" fill="#666666">
            <path d="M13.3675576,0 L2.63256886,0 C2.28322216,0 2,0.325624242 2,0.727272727 L2,15.2727273 C2,15.5668848 2.15413595,15.832097 2.39050584,15.9446303 C2.62687574,16.0571636 2.89896469,15.9949576 3.07987939,15.7869576 L4.42172662,14.2441697 L5.76357386,15.7869576 C5.88220161,15.9233455 6.04308495,16 6.21088439,16 C6.37864165,16 6.539525,15.9233939 6.65815274,15.7869576 L8.00004215,14.2441697 L9.34193156,15.7869576 C9.46055931,15.9233455 9.62144265,16 9.78919991,16 C9.95699935,16 10.1178827,15.9233455 10.2364683,15.7869576 L11.5783155,14.2441697 L12.9201627,15.7869576 C13.0411521,15.9261091 13.2029632,16 13.3675576,16 C13.4490747,16 13.5312664,15.9819152 13.6094941,15.9446303 C13.845864,15.8320485 14,15.5668364 14,15.2727273 L14,0.727272727 C14.0001265,0.325624242 13.7169043,0 13.3675576,0 L13.3675576,0 Z M12.1000004,13.3000002 C12.1000004,13.3000002 11.8492532,13.0000001 11.6000004,13 C11.3507476,12.9999999 11.1000004,13.3000002 11.1000004,13.3000002 L9.77000046,14.8000002 L8.47228543,13.3000002 C8.47228543,13.3000002 8.23613158,13 7.99997773,13 C7.76382388,13 7.52767003,13.3000002 7.52767003,13.3000002 L6.19999981,14.8000002 L4.90313721,13.3000002 C4.90313721,13.3112135 4.65487775,13 4.4000001,13 C4.14512244,13 4.0255127,13.1730957 3.9000001,13.3000002 C3.80831924,13.3938917 3,14.2038501 3,14.2038501 L3,1 L13,1 L13,14.2038501 L12.1000004,13.3000002 Z M4,9.5 C4,9.22385763 4.2157526,9 4.49538898,9 L6.50461102,9 C6.7782068,9 7,9.23193359 7,9.5 C7,9.77614237 6.7842474,10 6.50461102,10 L4.49538898,10 C4.2217932,10 4,9.76806641 4,9.5 Z M4,6.5 C4,6.22385763 4.2157526,6 4.49538898,6 L6.50461102,6 C6.7782068,6 7,6.23193359 7,6.5 C7,6.77614237 6.7842474,7 6.50461102,7 L4.49538898,7 C4.2217932,7 4,6.76806641 4,6.5 Z M4,3.5 C4,3.22385763 4.23079681,3 4.50043583,3 L11.4995642,3 C11.7759472,3 12,3.23193359 12,3.5 C12,3.77614237 11.7692032,4 11.4995642,4 L4.50043583,4 C4.22405275,4 4,3.76806641 4,3.5 Z M10.1947585,6.58375923 L10.1947585,6.28220921 C10.1947585,6.20209818 10.2302794,6.12349868 10.2907406,6.07059517 C10.3738747,5.99728601 10.4955528,5.97914767 10.5960694,6.0252493 C10.6950746,6.07135093 10.7608261,6.17337913 10.7608261,6.28220921 L10.7608261,6.61172251 C10.809195,6.62079169 10.8575639,6.63212815 10.9059329,6.64497615 C11.1712062,6.7182853 11.4175854,6.86036902 11.5974573,7.07047154 C11.6873933,7.1755228 11.7607025,7.29493358 11.8113387,7.42341354 C11.8241867,7.45666717 11.8362789,7.49143234 11.8461038,7.52544174 C11.8559288,7.55718384 11.864998,7.58892595 11.8687768,7.62142382 C11.8740671,7.67659463 11.8634864,7.73176543 11.8377904,7.78089012 C11.7856427,7.8814068 11.6745453,7.94186795 11.5619364,7.93204301 C11.450839,7.92146231 11.3533454,7.84437434 11.3185803,7.73856731 C11.3079995,7.70606944 11.3004419,7.67281581 11.2883497,7.64031793 C11.2762574,7.60857583 11.2618979,7.57758948 11.2452711,7.54811467 C11.2112617,7.48916504 11.1689389,7.43550577 11.12057,7.38864837 C11.0208091,7.29266629 10.8938406,7.22993784 10.7608261,7.19290538 L10.7608261,8.31219253 C11.0200533,8.37945557 11.2883497,8.46561272 11.502231,8.63263666 C11.6065265,8.71350346 11.6949509,8.81402013 11.7531448,8.93343091 C11.8143617,9.05888781 11.839302,9.19946 11.8400577,9.33852066 C11.8415693,9.47984861 11.8143617,9.61966504 11.7554121,9.74814499 C11.7002413,9.86906731 11.620886,9.97714162 11.5233924,10.0670776 C11.3148014,10.258286 11.0381916,10.3656046 10.7608261,10.4049043 L10.7608261,10.4298445 L10.7608261,10.7177908 C10.7608261,10.7979018 10.7253052,10.8765013 10.664844,10.9294048 C10.5824657,11.002714 10.4600318,11.0208523 10.3595152,10.9747507 C10.26051,10.9286491 10.1947585,10.8273766 10.1947585,10.7177908 L10.1947585,10.4298445 L10.1947585,10.4064158 C10.1577261,10.4018812 10.1214494,10.3965909 10.0844169,10.389789 C9.81158593,10.3406643 9.54555684,10.2280554 9.34603503,10.0315567 C9.25156447,9.93859764 9.1744765,9.82750026 9.12006146,9.70657795 C9.1041904,9.67256855 9.09134241,9.63780338 9.08000594,9.60303822 C9.06866947,9.56978458 9.05808877,9.53653095 9.05279842,9.50176578 C9.04524078,9.44735074 9.05355419,9.39066841 9.07698288,9.34078795 C9.12459604,9.23800399 9.2319146,9.17300825 9.34527926,9.17754283 C9.45637664,9.18283318 9.55689331,9.25538657 9.59694883,9.3589263 C9.60904106,9.38991264 9.61508717,9.42241052 9.62717941,9.45339686 C9.63927164,9.4843832 9.65514269,9.51461378 9.67328104,9.54257706 C9.70880197,9.5969921 9.75414783,9.6438495 9.80705135,9.68239349 C9.92041601,9.76628334 10.0579651,9.81011768 10.1947585,9.83430214 L10.1947585,8.76338391 C10.0315134,8.72408416 9.86826827,8.68176135 9.71182502,8.61978867 C9.47527075,8.52682964 9.25156447,8.38323439 9.12232875,8.15801658 C9.01803326,7.97436582 8.98402386,7.75821719 9.00669679,7.55264926 C9.0361716,7.27981829 9.18052261,7.03268331 9.39667125,6.86565937 C9.62491211,6.68881049 9.91059108,6.60643216 10.1947585,6.58375923 Z M11.2455801,9.56551814 C11.2878361,9.50566159 11.3137072,9.43832298 11.3214685,9.36682766 C11.3283675,9.294501 11.324918,9.21469227 11.2964598,9.14652231 C11.268864,9.08250906 11.21281,9.03429129 11.1541689,8.99604961 C11.0886289,8.95281988 11.0161899,8.91956624 10.9428885,8.89130065 C10.8816603,8.86719177 10.8118084,8.84391422 10.7376446,8.82229936 L10.7376446,9.84651137 C10.9265035,9.80743834 11.1326097,9.72430425 11.2455801,9.56551814 Z M9.58487405,7.80097514 C9.59741761,7.85841324 9.62328868,7.91207252 9.66483919,7.95590686 C9.70874162,8.00276425 9.76518761,8.03828518 9.8239855,8.06700423 C9.95020499,8.13124421 10.088968,8.1697882 10.2269471,8.20455336 L10.2269471,7.17595794 C10.0035151,7.2001424 9.74715625,7.27874191 9.62956046,7.47977525 C9.57311447,7.57575734 9.56213887,7.69365659 9.58487405,7.80097514 Z" id="Combined-Shape"></path>
        </g>
    </g>
</svg>