<?xml version="1.0" encoding="UTF-8" standalone="no"?>
<svg width="16px" height="16px" viewBox="0 0 16 16" version="1.1" xmlns="http://www.w3.org/2000/svg" xmlns:xlink="http://www.w3.org/1999/xlink">
    <!-- Generator: Sketch 3.8.3 (29802) - http://www.bohemiancoding.com/sketch -->
    <title>自定义</title>
    <desc>Created with Sketch.</desc>
    <defs></defs>
    <g id="Page-1" stroke="none" stroke-width="1" fill="none" fill-rule="evenodd">
        <g id="自定义" fill="#666666">
            <path d="M4.25,4.25 L4.25,1.49209595 C4.25,1.21637201 4.02614237,1 3.75,1 C3.48193359,1 3.25,1.22031886 3.25,1.49209595 L3.25,4.25 L0.492095947,4.25 C0.216372013,4.25 0,4.47385763 0,4.75 C0,5.01806641 0.22031886,5.25 0.492095947,5.25 L3.25,5.25 L3.25,8.00790405 C3.25,8.28362799 3.47385763,8.5 3.75,8.5 C4.01806641,8.5 4.25,8.27968114 4.25,8.00790405 L4.25,5.25 L7.00790405,5.25 C7.28362799,5.25 7.5,5.02614237 7.5,4.75 C7.5,4.48193359 7.27968114,4.25 7.00790405,4.25 L4.25,4.25 Z M8.5,12 C8.5,11.7238576 8.71637201,11.5 8.99209595,11.5 L15.5079041,11.5 C15.7796811,11.5 16,11.7319336 16,12 C16,12.2761424 15.783628,12.5 15.5079041,12.5 L8.99209595,12.5 C8.72031886,12.5 8.5,12.2680664 8.5,12 Z M9.98365967,1.31111321 C10.0722003,1.05397241 10.3632743,0.921028792 10.616736,1.00830268 C10.8778338,1.09820584 11.0138096,1.39089397 10.9291782,1.63668137 L6.43140366,14.6991672 C6.34286298,14.956308 6.05178905,15.0892517 5.79832729,15.0019778 C5.53722954,14.9120746 5.40125369,14.6193865 5.48588508,14.3735991 L9.98365967,1.31111321 Z" id="Combined-Shape"></path>
        </g>
    </g>
</svg>