<?xml version="1.0" encoding="UTF-8" standalone="no"?>
<svg width="16px" height="16px" viewBox="0 0 16 16" version="1.1" xmlns="http://www.w3.org/2000/svg" xmlns:xlink="http://www.w3.org/1999/xlink">
    <!-- Generator: Sketch 3.8.3 (29802) - http://www.bohemiancoding.com/sketch -->
    <title>icon_gym</title>
    <desc>Created with Sketch.</desc>
    <defs></defs>
    <g id="Page-1" stroke="none" stroke-width="1" fill="none" fill-rule="evenodd">
        <g id="icon_gym" fill="#666666">
            <path d="M0,4.99754465 C0,4.44661595 0.443716645,4 0.999807492,4 L4.00019251,4 C4.55237094,4 5,4.4463114 5,4.99754465 L5,12.0024554 C5,12.553384 4.55628335,13 4.00019251,13 L0.999807492,13 C0.447629061,13 0,12.5536886 0,12.0024554 L0,4.99754465 Z M1,5.50342274 C1,5.22539004 1.2157526,5 1.49538898,5 L3.50461102,5 C3.7782068,5 4,5.23290253 4,5.50342274 L4,11.4965773 C4,11.77461 3.7842474,12 3.50461102,12 L1.49538898,12 C1.2217932,12 1,11.7670975 1,11.4965773 L1,5.50342274 Z M11,4.99754465 C11,4.44661595 11.4437166,4 11.9998075,4 L15.0001925,4 C15.5523709,4 16,4.4463114 16,4.99754465 L16,12.0024554 C16,12.553384 15.5562834,13 15.0001925,13 L11.9998075,13 C11.4476291,13 11,12.5536886 11,12.0024554 L11,4.99754465 Z M12,5.50342274 C12,5.22539004 12.2157526,5 12.495389,5 L14.504611,5 C14.7782068,5 15,5.23290253 15,5.50342274 L15,11.4965773 C15,11.77461 14.7842474,12 14.504611,12 L12.495389,12 C12.2217932,12 12,11.7670975 12,11.4965773 L12,5.50342274 Z M5,8.5 L11,8.5 L11,9.5 L5,9.5 L5,8.5 Z" id="Combined-Shape"></path>
        </g>
    </g>
</svg>