<?xml version="1.0" encoding="UTF-8" standalone="no"?>
<svg width="16px" height="16px" viewBox="0 0 16 16" version="1.1" xmlns="http://www.w3.org/2000/svg" xmlns:xlink="http://www.w3.org/1999/xlink">
    <!-- Generator: Sketch 3.8.3 (29802) - http://www.bohemiancoding.com/sketch -->
    <title>icon_pillow</title>
    <desc>Created with Sketch.</desc>
    <defs></defs>
    <g id="Page-1" stroke="none" stroke-width="1" fill="none" fill-rule="evenodd">
        <g id="icon_pillow" fill="#666666">
            <path d="M9.85484077,13.6785 C9.78484077,13.6765 9.58584077,13.6705 9.26984077,13.6705 C8.46884077,13.6705 7.26584077,13.7095 6.08384077,13.8955 C4.25084077,14.1805 2.39984077,14.7285 2.38184077,14.7345 L2.31184077,14.7545 L2.31784077,14.6825 C2.35084077,14.2845 2.43784077,12.8645 2.20184077,11.2715 C1.96484077,9.6775 1.42084077,7.7605 1.25984077,7.2105 L1.23884077,7.1385 L1.31284077,7.1465 C1.51784077,7.1685 1.95484077,7.2045 2.57684077,7.2045 C3.34484077,7.2045 4.13984077,7.1495 4.93984077,7.0415 C6.84584077,6.7815 8.36484077,6.2505 8.78484077,6.0935 L8.85484077,6.0675 L8.85184077,6.1425 C8.83084077,6.6425 8.77984077,8.4005 9.02084077,10.0515 C9.28584077,11.8765 9.87784077,13.5415 9.90384077,13.6125 L9.92884077,13.6815 L9.85484077,13.6785 Z M10.0708408,9.9315 C9.79584077,8.0365 9.84184077,5.9665 9.87484077,5.1655 C9.87584077,5.1355 9.87684077,5.1185 9.87684077,5.1135 C9.85384077,4.9505 9.70684077,4.8215 9.53384077,4.8215 L9.43684077,4.8385 C9.22884077,4.9205 7.26884077,5.6685 4.76384077,6.0085 C3.81884077,6.1375 2.87884077,6.2025 1.97084077,6.2025 C0.959840769,6.2025 0.342840769,6.1185 0.337840769,6.1175 L0.315840769,6.1145 L0.292840769,6.1175 C0.203840769,6.1295 0.124840769,6.1765 0.0718407693,6.2485 C0.0128407693,6.3275 -0.0111592307,6.4315 0.00484076932,6.5405 C0.0118407693,6.5605 0.837840769,9.2945 1.16584077,11.5015 C1.42484077,13.2455 1.35784077,14.8525 1.29384077,15.6565 C1.29184077,15.6865 1.29084077,15.7045 1.28984077,15.7095 C1.31384077,15.8715 1.45984077,15.9985 1.62984077,16.0005 L1.72284077,15.9855 C2.12084077,15.8695 4.20784077,15.2735 6.24084077,14.9555 C7.64684077,14.7375 9.06984077,14.6915 10.0168408,14.6915 C10.4688408,14.6915 10.8028408,14.6965 10.8788408,14.7035 C10.9698408,14.6895 11.0488408,14.6425 11.1018408,14.5705 C11.1618408,14.4915 11.1808408,14.3965 11.1588408,14.2715 C11.1298408,14.1945 10.3958408,12.1665 10.0708408,9.9315 Z M15.8977408,2.5024 C15.8437408,2.4134 15.7597408,2.3604 15.6267408,2.3324 L15.6227408,2.3324 C15.5227408,2.3324 13.2747408,2.3014 10.6787408,1.6424 C8.12674077,0.9934 6.51074077,0.0994 6.39474077,0.0334 L6.24574077,0.0004 C6.08374077,0.0014 5.94374077,0.1214 5.90074077,0.3074 C5.86374077,0.7054 5.65874077,2.7714 5.27674077,4.6694 L5.23074077,4.9074 L6.36874077,4.7344 L6.39074077,4.6164 C6.66974077,3.1144 6.81874077,1.5824 6.83474077,1.4124 L6.84274077,1.3374 L6.90874077,1.3734 C7.25074077,1.5564 8.51474077,2.1924 10.4367408,2.6804 C12.5507408,3.2174 14.3047408,3.2564 14.4987408,3.2594 L14.5747408,3.2604 L14.5437408,3.3294 C14.3277408,3.8064 13.5907408,5.4924 13.1857408,7.1544 C12.7307408,9.0124 12.6557408,10.8404 12.6527408,10.9174 L12.6497408,10.9904 L12.5827408,10.9614 C12.4907408,10.9204 12.2357408,10.8104 11.8497408,10.6584 L11.5477408,10.5384 L11.8507408,11.8274 L11.9337408,11.8594 C12.4987408,12.0774 12.9127408,12.2574 13.0877408,12.3334 C13.1387408,12.3564 13.1687408,12.3684 13.1777408,12.3724 L13.2637408,12.3814 C13.4377408,12.3804 13.5737408,12.2584 13.6187408,12.0634 C13.6177408,12.0544 13.6957408,9.7734 14.2567408,7.4724 C14.7277408,5.5464 15.5757408,3.5764 15.9187408,2.8194 C15.9307408,2.7914 15.9387408,2.7744 15.9407408,2.7704 C15.9617408,2.6844 15.9477408,2.5864 15.8977408,2.5024 Z" id="Combined-Shape"></path>
        </g>
    </g>
</svg>